<svg width="128" height="128" viewBox="0 0 128 128" xmlns="http://www.w3.org/2000/svg">
  <defs>
    <linearGradient id="lg" x1="0%" y1="0%" x2="100%" y2="100%">
      <stop offset="0%" stop-color="#FF9770" />
      <stop offset="45%" stop-color="#FF6F91" />
      <stop offset="100%" stop-color="#845EF7" />
    </linearGradient>
  </defs>
  <circle cx="64" cy="64" r="56" fill="url(#lg)" />
  <path d="M64 20c18 0 34 16 34 34 0 13.7-7.9 25.4-20.1 30.6-3.5 1.5-7.3-1.5-6.7-5.3 1.2-8.7-2.7-17.9-10.9-23.2-8.3-5.4-18.6-5.4-26.9 0-3.6 2.3-8.1-0.6-7.8-4.8C26.9 33.1 42.4 20 64 20Z" fill="rgba(255,255,255,0.85)"/>
  <path d="M79 40c4.5 0 8 3.5 8 8" stroke="rgba(255,255,255,0.9)" stroke-width="6" stroke-linecap="round" />
  <circle cx="104" cy="32" r="6" fill="white"/>
</svg>
